<?xml version="1.0" encoding="utf-8"?>
<!-- Generator: Adobe Illustrator 24.0.1, SVG Export Plug-In . SVG Version: 6.00 Build 0)  -->
<svg version="1.1" id="Capa_1" xmlns="http://www.w3.org/2000/svg" xmlns:xlink="http://www.w3.org/1999/xlink" x="0px" y="0px"
	 viewBox="0 0 2114.32 517.03" style="enable-background:new 0 0 2114.32 517.03;" xml:space="preserve">
<style type="text/css">
	.st0{fill:#F96854;}
</style>
<g>
	<path class="st0" d="M542.71,256.15L327.89,130.37c-6.26-3.67-14.52,0.4-14.52,7.16v251.91c0,6.76,8.27,10.83,14.53,7.15
		l214.82-126.13C548.44,267.1,548.44,259.51,542.71,256.15z"/>
</g>
<g>
	<path d="M887.42,391.53h-74.55v-15.02c-19.85,12.87-43.98,20.38-72.94,20.38c-70.8,0-128.18-59-128.18-133.54
		c0-75.62,57.39-134.09,128.18-134.09c28.96,0,53.1,7.51,72.94,20.38v-15.02h74.55V391.53z M812.87,304.1v-82.06
		c-16.63-22.52-38.62-30.03-60.61-30.03c-39.15,0-66.5,33.25-66.5,71.33c0,37.54,27.35,70.26,66.5,70.26
		C774.25,333.6,796.24,326.09,812.87,304.1z"/>
	<path d="M915.53,43.98C915.53,18.77,935.37,0,960.58,0c24.67,0,44.51,18.77,44.51,43.98c0,24.67-19.84,42.91-44.51,42.91
		C935.37,86.89,915.53,68.65,915.53,43.98z M998.13,391.53h-74.55V134.62h74.55V391.53z"/>
	<path d="M1107.81,163.58c23.06-21.45,36.62-26.22,69.07-32.84l-0.17,72.61c-36.75,6.19-47.45,11.18-68.91,34.78v153.39h-74.55
		V134.62h74.55V163.58z"/>
	<path d="M1452.02,388.31c0,80.45-55.24,128.72-133.01,128.72c-74.55,0-129.79-45.58-135.16-111.02h75.09
		c3.22,26.82,24.67,44.51,60.07,44.51c33.25,0,59-21.45,59-61.68v-27.89c-19.84,12.87-43.98,20.38-72.94,20.38
		c-70.79,0-128.18-58.46-128.18-125.5c0-77.24,57.39-131.4,128.18-131.4c28.96,0,53.1,7.51,72.94,20.38v-10.19h74.01V388.31z
		 M1378.01,287.48v-69.19c-16.63-23.06-38.08-30.57-60.61-30.57c-39.15,0-66.5,27.89-66.5,68.12c0,29.5,27.36,62.75,66.5,62.75
		C1339.93,318.58,1361.38,311.08,1378.01,287.48z"/>
	<path d="M1480.14,43.98c0-25.21,19.85-43.98,45.05-43.98c24.67,0,44.51,18.77,44.51,43.98c0,24.67-19.84,42.91-44.51,42.91
		C1499.98,86.89,1480.14,68.65,1480.14,43.98z M1562.73,391.53h-74.55V134.62h74.55V391.53z"/>
	<path d="M1857.99,388.31c0,80.45-55.24,128.72-133.01,128.72c-74.55,0-129.79-45.58-135.16-111.02h75.09
		c3.22,26.82,24.67,44.51,60.07,44.51c33.25,0,59-21.45,59-61.68v-27.89c-19.84,12.87-43.98,20.38-72.94,20.38
		c-70.79,0-128.18-58.46-128.18-125.5c0-77.24,57.39-131.4,128.18-131.4c28.96,0,53.1,7.51,72.94,20.38v-10.19h74.01V388.31z
		 M1783.98,287.48v-69.19c-16.63-23.06-38.08-30.57-60.61-30.57c-39.15,0-66.5,27.89-66.5,68.12c0,29.5,27.35,62.75,66.5,62.75
		C1745.9,318.58,1767.35,311.08,1783.98,287.48z"/>
	<path d="M1945.37,303.03c4.29,27.35,24.14,38.08,53.63,38.08c25.74,0,43.44-8.58,43.44-21.99c0-10.19-8.58-18.23-25.74-21.45
		l-54.71-9.12c-39.15-6.97-75.62-28.43-75.62-76.16c0-53.1,45.05-84.74,111.02-84.74c43.98,0,109.95,15.02,115.31,87.42l-68.11,0.53
		c-1.61-23.06-22.53-32.18-47.2-32.18c-25.74,0-38.08,10.19-38.08,21.99c0,9.65,6.97,19.84,30.57,24.14l46.66,7.51
		c41.83,7.51,77.77,27.35,77.77,75.62c0,57.92-50.42,86.88-115.85,86.88c-59.53,0-115.85-24.14-121.21-97.07L1945.37,303.03z"/>
</g>
<circle class="st0" cx="134.13" cy="263.84" r="134.13"/>
</svg>
